<svg xmlns="http://www.w3.org/2000/svg" viewBox="0 0 64 64"><g data-name="14-Reload"><path d="M23 27v4h-7a21.031 21.031 0 0 1 .38-4z" style="fill:#fa5f07"/><path d="M32 1a19.61 19.61 0 0 1 19 13C46.44 7.7 39.99 4 32 4 18.19 4 7 16.09 7 31H1v-4h3S4 1 32 1z" style="fill:#d65106"/><path d="M32 4c7.99 0 14.44 3.7 19 10l-1 1c-3.66-3.46-8.13-5-13.5-5a20.631 20.631 0 0 0-20.12 17 21.031 21.031 0 0 0-.38 4h7L12 45 1 31h6C7 16.09 18.19 4 32 4z" style="fill:#fd9c04"/><path d="M41 33h7a21.031 21.031 0 0 1-.38 4H41z" style="fill:#2a84c9"/><path d="M13 50c4.56 6.3 11.01 10 19 10 13.81 0 25-12.09 25-27h6v4h-3s0 26-28 26a19.61 19.61 0 0 1-19-13z" style="fill:#2a84c9"/><path d="M47.62 37a21.031 21.031 0 0 0 .38-4h-7l11-14 11 14h-6c0 14.91-11.19 27-25 27-7.99 0-14.44-3.7-19-10l1-1c3.66 3.46 8.13 5 13.5 5a20.631 20.631 0 0 0 20.12-17z" style="fill:#6bdcff"/><path d="M56.646 43.441a3.125 3.125 0 0 0-1.653.171c-3.427 8.649-10.915 14.967-19.876 16.172A2.456 2.456 0 0 0 35 60.5a2.494 2.494 0 0 0 1.434 2.253c14.549-1.6 20.116-11.04 22.243-18.034a3.118 3.118 0 0 0-2.031-1.278z" style="fill:#319aeb"/><path d="M27.488 2.952a2.1 2.1 0 0 0-1.439-1.5C15.6 3.067 10.1 8.881 7.213 14.567a3.031 3.031 0 0 0 3.421 2.407A25.125 25.125 0 0 1 27.281 4.487a2.1 2.1 0 0 0 .207-1.535z" style="fill:#fa5f07"/><path d="M14.745 23a5.259 5.259 0 0 0 3.32-1.182 21.067 21.067 0 0 1 2.573-4.094L21 17l-.362.724A20.254 20.254 0 0 1 36.5 10c.471 0 .926.027 1.382.051a3.48 3.48 0 0 0-.382-5.417A23.714 23.714 0 0 0 32 4c-9.8 0-18.278 6.093-22.376 14.959A5.266 5.266 0 0 0 14.745 23z" style="fill:#fab503"/><path d="M48.255 41a5.242 5.242 0 0 0-1.987.4A20.471 20.471 0 0 1 27.5 54c-.791 0-1.556-.044-2.308-.112a3.476 3.476 0 0 0-.178 5.074A23.29 23.29 0 0 0 32 60c9.141 0 17.13-5.3 21.49-13.2a5.264 5.264 0 0 0-5.235-5.8z" style="fill:#8ceaff"/><path style="fill:none;stroke:#000;stroke-linejoin:round;stroke-width:2px" d="M23 31v-4h-4M10.083 18q-.5.977-.921 2"/><path d="M8.422 22A28.913 28.913 0 0 0 7 31H1l11 14 11-14h-7a20.754 20.754 0 0 1 20.5-21c5.37 0 9.84 1.54 13.5 5l1-1C46.44 7.7 39.99 4 32 4a24.588 24.588 0 0 0-21 12.344" style="fill:none;stroke:#000;stroke-linejoin:round;stroke-width:2px"/><path d="M51 14A19.61 19.61 0 0 0 32 1C4 1 4 27 4 27H1v4M41 33v4h4" style="fill:none;stroke:#000;stroke-linejoin:round;stroke-width:2px"/><path d="M38 59.218C48.911 56.315 57 45.677 57 33h6L52 19 41 33h7a20.754 20.754 0 0 1-20.5 21c-5.37 0-9.84-1.54-13.5-5l-1 1c4.56 6.3 11.01 10 19 10M34 59.915q1.012-.087 2-.259" style="fill:none;stroke:#000;stroke-linejoin:round;stroke-width:2px"/><path d="M13 50a19.61 19.61 0 0 0 19 13c28 0 28-26 28-26h3v-4" style="fill:none;stroke:#000;stroke-linejoin:round;stroke-width:2px"/></g></svg>
